<?xml version="1.0" standalone="no"?>
<!DOCTYPE svg PUBLIC "-//W3C//DTD SVG 20010904//EN"
 "http://www.w3.org/TR/2001/REC-SVG-20010904/DTD/svg10.dtd">
<svg version="1.0" xmlns="http://www.w3.org/2000/svg"
 width="2000.000000pt" height="2000.000000pt" viewBox="0 0 2000.000000 2000.000000"
 preserveAspectRatio="xMidYMid meet">
<metadata>
Created by potrace 1.14, written by Peter Selinger 2001-2017
</metadata>
<g transform="translate(0.000000,2000.000000) scale(0.100000,-0.100000)"
fill="#000000" stroke="none">
<path d="M11425 19899 c-9 -49 -15 -92 -14 -93 2 -2 38 -10 79 -18 54 -10 75
-18 74 -28 -3 -21 -4 -29 -119 -603 -58 -287 -107 -531 -109 -542 -41 -218
-30 -203 -134 -181 -35 7 -64 10 -66 7 -6 -10 -38 -173 -34 -176 3 -4 510
-105 525 -105 5 0 9 8 10 18 1 9 9 48 17 87 15 73 12 85 -26 85 -9 0 -40 5
-68 12 l-52 12 7 35 c4 20 9 45 11 56 2 11 15 74 28 140 14 66 27 131 30 145
18 99 39 196 45 202 3 4 36 0 72 -7 36 -8 77 -16 90 -19 106 -19 254 -49 304
-61 33 -7 76 -16 95 -19 37 -6 67 -12 113 -22 15 -3 27 -11 27 -18 0 -6 -11
-66 -25 -131 -14 -66 -28 -136 -31 -155 -3 -19 -7 -43 -10 -52 -3 -9 -7 -27
-9 -40 -38 -206 -36 -200 -64 -193 -31 8 -42 10 -97 19 l-40 7 -17 -87 c-10
-48 -14 -91 -10 -94 7 -6 59 -17 168 -36 56 -10 320 -65 337 -70 20 -6 26 9
42 107 3 19 8 44 10 56 4 19 -2 22 -57 33 -34 6 -69 13 -77 14 -23 5 -25 -10
60 411 33 165 62 311 65 325 2 14 18 90 34 170 16 80 32 156 35 170 2 14 16
84 30 155 14 72 26 131 26 131 0 1 36 -6 80 -15 91 -20 81 -28 100 74 6 33 14
68 16 77 4 13 -3 18 -28 23 -55 10 -61 11 -103 20 -66 13 -78 15 -130 26 -27
6 -63 13 -80 15 -16 3 -47 10 -69 15 -72 19 -126 22 -127 8 -1 -15 -1 -18 -19
-102 -6 -32 -9 -61 -6 -64 3 -3 27 -10 53 -15 26 -5 55 -11 63 -13 8 -2 20 -4
27 -4 13 -1 11 -16 -12 -116 -7 -33 -16 -76 -19 -95 -3 -19 -12 -67 -20 -105
-18 -86 -25 -122 -32 -155 -2 -14 -9 -46 -15 -71 l-10 -46 -142 29 c-78 16
-153 31 -167 33 -106 19 -384 76 -390 80 -6 3 72 420 105 563 6 24 10 24 137
-4 30 -6 27 -13 52 109 10 50 11 69 2 72 -10 4 -344 71 -406 82 -14 2 -43 8
-65 13 -22 5 -43 10 -46 10 -3 0 -14 -41 -24 -91z"/>
<path d="M9327 19844 c-1 -2 -34 -6 -72 -9 -39 -3 -81 -7 -95 -10 -14 -2 -53
-7 -87 -10 -34 -3 -70 -7 -80 -9 -10 -2 -49 -7 -88 -10 -130 -13 -161 -20
-168 -40 -3 -8 -48 -70 -99 -138 l-94 -123 8 -55 c4 -30 9 -84 13 -120 3 -36
7 -76 10 -90 2 -14 7 -52 10 -85 3 -33 8 -71 10 -85 2 -14 7 -52 10 -85 7 -61
9 -76 19 -180 6 -56 12 -104 21 -165 2 -14 6 -51 10 -82 l6 -58 137 -114 c99
-83 142 -114 157 -111 19 4 83 12 172 20 45 5 190 22 263 32 46 6 88 10 127
12 14 1 38 22 70 64 26 34 51 67 56 72 53 67 115 159 112 168 -2 7 -6 40 -10
74 -6 64 -12 120 -20 183 -2 19 -7 64 -11 100 -4 36 -8 72 -10 80 -1 8 -3 28
-3 43 l-1 29 -67 -7 c-38 -3 -79 -8 -93 -10 -14 -2 -47 -6 -75 -9 -27 -3 -75
-9 -105 -12 -90 -11 -93 -11 -134 -13 l-38 -1 6 -62 c3 -35 8 -72 10 -83 3
-11 5 -26 5 -34 1 -10 13 -12 54 -8 198 22 252 29 258 33 12 7 42 -247 30
-256 -3 -3 -22 -25 -41 -50 -19 -25 -40 -51 -47 -58 -7 -8 -17 -22 -23 -31 -7
-14 -27 -20 -82 -25 -75 -8 -130 -14 -184 -21 -16 -2 -59 -7 -95 -11 -35 -3
-67 -7 -70 -7 -12 -4 -132 99 -139 118 -4 12 -11 50 -15 85 -11 111 -24 226
-30 265 -2 17 -7 60 -10 97 -4 37 -8 75 -10 85 -2 10 -6 47 -10 83 -4 36 -9
76 -11 90 -1 14 -6 54 -9 90 l-7 65 52 65 c28 36 53 66 53 67 3 2 154 22 212
27 63 6 140 15 182 22 23 3 39 -1 55 -15 13 -10 51 -42 86 -70 52 -43 62 -57
63 -84 0 -18 2 -41 5 -52 2 -11 5 -40 6 -64 l3 -43 80 7 c44 4 86 8 94 8 11 0
12 15 7 76 -16 170 -24 221 -39 235 -7 6 -52 45 -102 86 -49 41 -103 86 -118
100 -24 21 -69 35 -80 24z"/>
<path d="M7555 19558 c-132 -44 -241 -81 -243 -83 -5 -4 50 -165 58 -170 4 -2
40 6 79 20 l72 24 10 -27 c6 -15 71 -211 146 -437 74 -225 148 -447 163 -493
16 -46 25 -82 20 -80 -5 2 -62 55 -127 118 -103 99 -376 361 -547 524 -28 27
-103 99 -166 160 -64 61 -136 130 -162 154 l-45 43 -232 -76 c-127 -42 -231
-77 -231 -79 0 -2 45 -138 54 -163 3 -8 27 -4 82 13 42 14 78 23 79 22 10 -11
355 -1074 351 -1083 -2 -6 -36 -21 -75 -33 -63 -21 -71 -26 -66 -44 42 -129
53 -153 71 -150 11 2 127 39 260 83 l241 79 -29 88 c-17 48 -31 88 -32 90 -2
1 -19 -5 -39 -13 -21 -8 -37 -12 -37 -9 0 4 -6 2 -13 -4 -7 -6 -25 -12 -40
-14 -32 -4 -4 -78 -227 596 -77 235 -140 429 -138 431 2 2 57 -49 124 -113 66
-65 205 -198 309 -297 103 -99 240 -230 304 -291 64 -61 160 -154 215 -206
l98 -94 142 46 c77 26 146 49 153 51 8 3 -3 48 -33 139 -25 74 -119 359 -210
634 -91 274 -164 500 -162 501 2 1 33 12 70 24 37 13 70 27 73 32 3 5 -6 45
-21 89 -19 58 -31 80 -43 79 -9 0 -124 -37 -256 -81z"/>
<path d="M5405 18712 c-86 -48 -145 -81 -318 -179 -121 -69 -167 -99 -163
-110 3 -8 24 -46 47 -84 l40 -70 27 19 c56 39 54 42 89 -147 18 -97 35 -189
38 -206 9 -52 15 -88 25 -140 5 -27 12 -63 15 -80 3 -16 7 -41 10 -55 6 -27
33 -177 41 -225 3 -16 16 -89 30 -162 13 -73 24 -137 24 -143 0 -5 -22 -21
-50 -35 -27 -14 -50 -29 -50 -33 0 -10 85 -157 91 -157 3 0 100 54 217 119
l212 119 -43 79 c-40 74 -59 91 -83 69 -5 -5 -30 -20 -56 -34 l-47 -26 -5 27
c-7 35 -15 79 -22 122 -3 19 -7 42 -9 50 -2 8 -7 35 -10 61 l-6 45 245 138
c135 76 252 139 259 140 7 0 47 -29 88 -65 41 -37 89 -80 107 -95 17 -16 32
-32 32 -36 0 -4 -27 -21 -60 -39 -50 -26 -59 -35 -54 -52 5 -15 67 -129 79
-145 2 -2 100 52 219 119 l215 121 -28 51 c-16 29 -37 66 -47 83 l-18 31 -48
-28 c-27 -16 -54 -29 -61 -29 -7 0 -37 24 -68 53 -31 28 -84 77 -119 107 -85
74 -151 132 -170 150 -9 8 -47 42 -85 75 -38 33 -78 69 -90 80 -11 11 -54 49
-95 85 -165 145 -275 244 -278 250 -1 4 11 13 27 20 54 22 55 31 9 114 -24 42
-45 76 -48 76 -3 0 -27 -13 -55 -28z m-79 -330 c130 -115 162 -143 184 -162
14 -12 39 -33 55 -48 17 -15 73 -65 125 -111 52 -46 101 -89 108 -96 12 -10 9
-15 -15 -27 -15 -8 -64 -35 -108 -60 -44 -25 -102 -57 -130 -73 -27 -15 -69
-38 -92 -52 -47 -27 -47 -28 -59 62 -3 28 -8 53 -10 56 -2 4 -6 24 -10 44 -3
21 -7 45 -9 54 -15 79 -36 193 -41 226 -3 22 -14 79 -24 128 -9 48 -15 87 -11
87 3 0 20 -13 37 -28z"/>
<path d="M15232 18524 l-50 -77 51 -35 c29 -19 58 -40 66 -48 15 -14 0 -38
-318 -504 -58 -85 -156 -229 -218 -320 -61 -91 -137 -202 -168 -248 l-56 -82
-57 38 c-31 21 -62 42 -69 46 -8 4 -30 -21 -63 -70 -29 -41 -50 -77 -48 -79 1
-1 39 -27 83 -57 44 -30 137 -93 207 -141 69 -48 132 -84 140 -82 12 6 90 119
96 140 1 6 -23 26 -53 45 -30 19 -54 38 -52 41 8 21 293 438 300 439 4 0 67
-41 140 -91 l133 -92 -18 -101 c-10 -56 -20 -119 -23 -141 -3 -22 -7 -51 -10
-65 -2 -13 -7 -40 -10 -60 -21 -136 -33 -202 -39 -207 -3 -4 -20 3 -36 15 -16
12 -31 22 -34 22 -6 0 -108 -151 -104 -155 16 -13 362 -244 364 -242 1 1 25
35 53 76 l51 74 -51 35 c-46 33 -50 39 -45 66 3 17 15 92 26 166 11 74 27 171
35 215 7 44 17 100 20 125 4 25 8 47 11 49 2 2 43 12 91 23 48 10 97 21 108
23 24 6 59 13 102 21 41 8 42 8 200 241 143 212 136 195 120 288 -2 11 -12 72
-22 135 -11 71 -24 121 -34 131 -9 9 -92 68 -186 131 -93 63 -261 176 -372
251 -110 75 -203 137 -206 137 -2 0 -27 -34 -55 -76z m376 -383 c217 -146 266
-181 268 -194 1 -6 5 -25 8 -42 4 -16 9 -46 12 -65 3 -19 7 -41 10 -49 3 -8
-39 -79 -93 -159 -95 -139 -107 -154 -128 -158 -5 -1 -26 -5 -45 -9 -19 -3
-53 -10 -74 -15 -22 -5 -47 -5 -56 0 -27 14 -344 231 -359 245 -11 11 8 44
116 201 70 104 148 219 173 256 25 37 47 68 48 68 2 0 56 -35 120 -79z"/>
<path d="M12997 18082 c-6 -9 -85 -223 -89 -241 -2 -9 31 -26 97 -52 55 -21
105 -38 110 -38 9 -1 103 245 98 258 -1 3 -200 80 -210 81 -1 0 -4 -3 -6 -8z"/>
<path d="M4004 17858 c-26 -24 -60 -56 -77 -71 -16 -15 -83 -76 -148 -135 -66
-58 -119 -109 -119 -112 0 -4 10 -16 23 -27 12 -11 38 -38 57 -61 19 -23 39
-42 44 -42 5 0 34 23 64 52 l55 52 41 -45 c94 -102 225 -246 255 -281 25 -29
29 -38 18 -45 -8 -4 -59 -48 -112 -98 -54 -49 -110 -101 -124 -113 -14 -13
-44 -40 -66 -60 -22 -21 -81 -74 -131 -119 l-91 -82 -69 76 c-38 42 -92 102
-120 132 -28 31 -69 77 -92 102 l-41 46 60 56 59 57 -57 62 c-31 35 -62 64
-68 66 -5 1 -30 -17 -55 -40 -36 -34 -180 -165 -244 -223 -6 -5 -32 -29 -58
-52 l-46 -42 63 -69 62 -70 29 26 c16 14 44 39 61 55 l32 30 39 -44 c22 -24
52 -58 68 -75 16 -17 65 -71 109 -120 44 -48 87 -95 95 -104 8 -9 55 -61 105
-116 49 -54 92 -101 95 -104 3 -3 46 -50 95 -105 50 -55 97 -107 105 -115 8
-9 26 -27 39 -42 l23 -27 -60 -56 c-57 -53 -60 -57 -44 -74 9 -9 36 -39 60
-66 53 -59 44 -62 193 76 57 52 126 115 154 140 27 24 62 56 78 70 l28 25 -57
65 c-31 35 -60 65 -64 67 -8 3 -103 -75 -108 -89 -2 -5 -8 -9 -12 -9 -8 0 -58
49 -107 106 -10 12 -55 62 -101 112 -45 49 -92 102 -103 115 -19 26 -19 26 1
40 12 8 42 34 68 58 26 24 94 87 152 139 58 52 125 114 150 137 25 23 68 62
95 87 l50 45 23 -26 c12 -15 60 -67 105 -116 45 -49 93 -103 107 -120 14 -17
40 -44 58 -61 l33 -30 -62 -58 -63 -58 31 -32 c17 -18 46 -50 63 -70 l33 -37
41 39 c22 21 52 48 66 60 28 24 167 150 244 221 l50 47 -58 66 c-32 36 -62 66
-67 66 -6 0 -31 -19 -55 -42 -66 -62 -68 -63 -105 -20 -17 20 -71 79 -118 131
-107 117 -90 99 -191 211 -47 52 -101 113 -122 135 -20 22 -47 52 -60 66 -12
14 -60 66 -105 115 -100 109 -133 147 -133 154 0 3 25 27 55 54 30 26 55 51
55 56 0 11 -111 130 -121 130 -4 0 -29 -19 -55 -42z"/>
<path d="M16854 16947 l-69 -65 33 -34 c33 -35 39 -48 23 -48 -5 0 -83 -34
-173 -76 -90 -42 -183 -85 -208 -96 -79 -35 -142 -65 -245 -113 -55 -26 -116
-54 -135 -62 -19 -9 -73 -34 -120 -56 -47 -22 -113 -52 -148 -68 l-63 -28 -42
44 -42 45 -69 -65 c-38 -36 -66 -68 -62 -73 4 -4 82 -85 174 -180 l165 -173
64 63 c35 34 63 66 63 70 0 4 -23 31 -50 60 l-51 53 38 17 c149 70 235 108
240 108 3 0 27 -22 52 -49 25 -27 114 -119 196 -205 83 -86 151 -161 153 -166
3 -7 -99 -216 -127 -258 -6 -10 -21 0 -60 41 l-52 55 -69 -66 -69 -65 69 -71
c38 -39 115 -120 173 -180 l104 -109 67 65 68 66 -41 43 c-23 24 -41 48 -41
53 0 7 108 220 280 551 31 61 97 189 146 285 48 96 97 190 108 209 l19 34 34
-38 33 -37 65 63 c36 35 64 67 63 71 -2 4 -75 82 -163 174 -88 91 -183 191
-211 222 l-51 55 -69 -66z m-14 -604 c-84 -164 -156 -301 -159 -306 -4 -4 -58
45 -121 110 -62 65 -133 139 -158 165 l-45 47 24 9 c13 6 56 24 94 42 39 18
95 44 125 57 70 32 224 105 315 147 39 19 71 32 73 31 2 -2 -65 -138 -148
-302z"/>
<path d="M2566 16233 c-1 -1 -24 -5 -51 -8 -28 -4 -61 -8 -75 -10 -14 -2 -47
-6 -75 -10 -50 -7 -50 -7 -125 -108 -41 -56 -113 -154 -161 -218 -47 -64 -84
-122 -83 -130 5 -27 35 -194 40 -221 6 -37 14 -87 17 -101 4 -19 304 -240 317
-232 3 2 33 6 65 10 33 3 71 8 85 10 14 3 48 7 75 10 102 12 92 3 245 210 109
148 150 195 169 199 14 3 52 8 83 12 l57 6 82 -61 c46 -34 84 -67 85 -74 10
-66 15 -97 20 -124 6 -29 -5 -48 -116 -198 -72 -98 -128 -165 -138 -165 -9 0
-53 -6 -98 -14 l-81 -13 -79 58 c-43 32 -83 58 -89 58 -10 1 -120 -148 -114
-153 57 -46 243 -175 248 -172 3 2 38 7 76 11 39 4 77 9 85 10 8 2 44 7 80 11
36 4 68 9 73 10 4 1 11 2 17 3 5 0 40 43 78 94 125 167 268 362 274 372 5 9
-1 51 -25 190 -17 90 -27 151 -27 157 0 4 -62 55 -139 112 -130 97 -141 103
-177 99 -22 -3 -99 -12 -173 -21 l-134 -17 -144 -195 c-157 -214 -137 -197
-264 -214 -44 -6 -48 -4 -135 61 -49 36 -90 67 -92 68 -5 4 -24 118 -26 157
-1 10 46 82 104 162 l104 144 61 7 c33 4 76 9 95 12 19 2 36 6 38 8 2 2 42
-25 89 -60 l85 -64 54 73 c30 41 54 79 54 84 0 5 -12 18 -27 28 -15 9 -32 21
-38 26 -5 5 -44 33 -85 64 -71 52 -77 54 -128 52 -29 -2 -55 -4 -56 -5z"/>
<path d="M17898 15750 l-78 -50 26 -43 c15 -23 35 -54 45 -68 l18 -25 -77 -51
c-42 -28 -216 -139 -387 -248 -388 -248 -444 -284 -477 -307 l-26 -18 -46 70
-46 69 -48 -30 c-26 -17 -59 -39 -74 -48 -16 -9 -28 -20 -28 -26 1 -5 34 -62
75 -125 40 -63 101 -159 135 -212 34 -53 67 -101 73 -106 8 -7 32 4 77 34 36
24 69 45 74 47 10 3 -17 59 -52 105 -22 28 -23 35 -11 47 11 10 663 430 867
559 38 24 55 24 33 0 -5 -5 -23 -36 -41 -69 -19 -33 -91 -161 -160 -285 -70
-124 -138 -243 -150 -265 -12 -22 -96 -171 -187 -332 l-164 -292 86 -135 c81
-128 88 -135 108 -124 12 6 85 52 162 103 77 50 193 125 258 166 64 40 149 94
187 119 97 62 384 246 447 287 l52 33 43 -65 c23 -36 47 -64 53 -63 25 7 145
84 144 93 0 6 -29 55 -64 110 -35 55 -97 151 -137 214 -40 63 -76 119 -79 124
-7 9 -159 -83 -159 -96 0 -5 13 -27 29 -50 59 -88 61 -81 -26 -136 -43 -28
-249 -160 -458 -294 -209 -135 -382 -243 -384 -242 -1 2 49 95 112 207 63 112
124 219 134 238 11 19 120 212 242 428 l222 393 -131 204 c-73 113 -133 205
-134 205 0 0 -36 -23 -78 -50z"/>
<path d="M1414 14893 c-159 -302 -206 -394 -203 -397 2 -1 40 -21 84 -44 l80
-41 44 85 c30 58 47 82 55 76 6 -5 70 -40 141 -77 72 -37 157 -82 190 -100 33
-18 105 -56 160 -85 55 -29 136 -72 180 -96 44 -23 132 -70 195 -103 63 -33
119 -66 123 -73 5 -8 -6 -40 -32 -87 -38 -68 -43 -91 -21 -91 4 0 36 -16 70
-35 34 -19 66 -35 70 -35 5 0 15 12 22 28 16 30 100 188 188 353 31 59 60 114
63 123 5 11 -13 25 -71 56 -42 22 -80 40 -85 40 -4 0 -11 -8 -15 -17 -4 -10
-22 -46 -40 -81 l-33 -63 -127 67 c-70 37 -149 79 -177 94 -27 15 -95 51 -150
80 -269 142 -393 208 -492 261 l-71 39 37 68 c56 102 58 93 -28 137 -42 21
-79 40 -83 42 -3 2 -36 -54 -74 -124z"/>
<path d="M6270 14678 c-11 -18 -25 -51 -32 -73 -12 -43 -14 -186 -4 -250 34
-212 84 -430 131 -570 37 -110 116 -267 210 -415 60 -94 61 -98 29 -69 -16 14
-47 38 -69 54 -46 34 -195 183 -340 340 -241 262 -227 245 -312 358 -71 93
-100 111 -132 83 -17 -15 -50 -101 -58 -151 -20 -116 5 -289 68 -480 42 -126
153 -340 199 -385 3 -3 43 -50 90 -105 47 -55 96 -112 110 -126 14 -14 54 -56
90 -94 l65 -68 -135 91 c-133 90 -180 131 -412 358 -161 158 -213 176 -239 81
-19 -71 3 -201 56 -322 7 -16 29 -70 49 -118 45 -109 63 -138 173 -274 75 -93
105 -128 158 -187 6 -6 42 -47 80 -91 39 -44 72 -82 75 -85 3 -3 32 -34 65
-69 l60 -64 -82 43 c-45 24 -117 68 -160 99 -127 91 -206 119 -248 88 -17 -13
-20 -27 -20 -84 0 -64 4 -77 58 -186 108 -217 242 -392 371 -484 126 -91 202
-148 212 -162 9 -11 7 -19 -7 -35 -52 -55 -3 -154 143 -291 136 -127 178 -158
328 -241 171 -94 187 -110 197 -192 11 -94 66 -162 204 -253 125 -83 185 -114
277 -144 81 -26 98 -40 66 -52 -13 -5 -15 -15 -10 -50 12 -93 67 -157 217
-257 68 -45 102 -59 182 -79 99 -25 144 -46 154 -73 3 -8 -2 -31 -10 -53 -9
-21 -14 -47 -12 -57 2 -10 4 -26 4 -35 2 -43 115 -182 296 -364 115 -116 146
-145 265 -245 29 -25 58 -50 64 -55 29 -27 315 -252 425 -334 69 -51 208 -148
310 -216 210 -139 271 -188 296 -241 17 -36 17 -37 -6 -60 -13 -12 -89 -56
-169 -97 -137 -70 -152 -76 -285 -100 -77 -14 -158 -29 -180 -32 -23 -3 -50
-7 -60 -9 -11 -2 -45 -7 -75 -12 -30 -4 -57 -8 -60 -9 -4 -1 -81 -11 -155 -20
-11 -2 -74 -11 -140 -20 -66 -9 -131 -18 -145 -20 -98 -14 -249 -41 -388 -71
-656 -141 -955 -285 -822 -397 34 -29 163 -81 256 -104 73 -18 108 -45 98 -75
-3 -11 -19 -42 -36 -68 -35 -56 -45 -123 -26 -160 8 -14 29 -30 50 -37 40 -13
200 -32 321 -37 43 -2 80 -6 84 -9 3 -3 -7 -20 -21 -38 -38 -45 -68 -107 -64
-132 2 -16 18 -28 61 -45 94 -37 159 -45 339 -39 92 2 169 2 172 0 2 -3 -9
-37 -26 -76 -16 -40 -32 -97 -35 -129 -6 -55 -5 -56 27 -73 58 -30 201 -23
285 14 22 10 53 21 68 25 l29 7 -7 -95 c-7 -87 -6 -95 14 -115 14 -14 34 -21
57 -21 52 0 170 38 225 73 46 28 50 29 72 14 18 -12 27 -31 36 -79 26 -133 52
-167 113 -146 43 15 110 86 137 144 48 103 268 453 334 532 83 98 216 224 229
216 27 -17 72 -167 82 -269 3 -33 8 -71 11 -85 2 -13 6 -39 7 -57 4 -65 67
-88 116 -43 10 10 38 28 61 39 l41 21 1 -32 c0 -18 2 -42 4 -53 2 -11 7 -45
10 -75 13 -119 47 -220 90 -262 37 -37 73 -36 110 2 40 42 54 26 52 -57 -2
-59 -5 -67 -31 -88 -17 -13 -59 -31 -95 -40 -124 -32 -162 -49 -197 -87 -30
-34 -84 -127 -84 -145 0 -5 -3 -15 -5 -24 -8 -25 12 -69 37 -78 31 -11 90 4
106 27 10 16 20 18 45 13 66 -14 142 1 230 45 63 32 77 36 126 31 119 -12 195
-62 244 -161 21 -40 37 -78 37 -84 0 -6 11 -19 25 -28 22 -14 32 -15 64 -6 40
13 57 36 66 92 7 41 25 63 33 40 10 -29 61 -70 86 -70 25 0 76 53 76 78 0 17
22 14 49 -7 20 -15 30 -17 55 -8 46 15 55 25 72 83 14 48 14 57 0 86 -25 53
-92 114 -159 146 -34 16 -99 47 -145 68 l-83 39 54 2 c57 1 110 23 183 75 87
62 171 69 312 23 46 -14 90 -24 98 -21 19 7 43 63 46 107 l2 34 64 0 c76 0 92
15 92 86 0 44 2 47 31 53 17 3 41 6 53 6 95 1 47 125 -73 189 -80 42 -133 42
-291 1 -146 -39 -140 -37 -193 -45 -108 -16 -131 10 -140 160 -9 148 -60 383
-125 575 -34 103 -38 150 -17 235 38 151 134 301 310 485 105 110 127 142 225
341 89 180 119 219 219 279 91 55 181 131 182 155 0 11 2 34 3 51 4 33 2 35
-91 59 l-22 6 19 55 19 55 -27 10 c-15 6 -35 14 -44 18 -16 6 -15 12 13 70 17
34 29 64 27 65 -2 2 -33 13 -70 25 l-68 22 30 59 c33 65 34 70 21 70 -5 0 -27
10 -50 23 l-40 23 30 64 c16 35 28 69 25 75 -2 6 -28 12 -57 14 -30 1 -55 4
-57 6 -3 2 14 33 36 68 l40 63 -46 14 c-26 8 -51 14 -57 14 -5 1 -13 5 -17 11
-4 5 -5 118 -3 250 4 237 6 270 20 363 3 26 9 63 11 82 9 60 44 184 60 208 16
24 16 24 30 4 7 -11 20 -46 29 -78 8 -31 16 -59 18 -61 2 -2 44 39 93 90 77
82 120 122 209 196 25 21 235 171 340 243 115 79 313 202 392 243 93 48 123
78 123 122 0 19 -4 42 -9 51 -8 15 -1 17 63 18 88 1 197 32 262 76 54 37 102
106 110 160 l6 35 -46 7 c-25 4 -48 11 -51 16 -3 5 41 22 97 40 268 81 323
119 456 309 87 124 111 182 79 194 -8 3 -36 1 -63 -4 -27 -5 -65 -12 -84 -15
-19 -3 -43 -7 -52 -10 -59 -17 -175 -26 -183 -14 -4 7 52 61 209 200 211 186
409 445 464 605 30 89 32 101 38 270 6 134 4 158 -10 180 -16 24 -18 24 -45
11 -15 -8 -41 -32 -57 -53 -73 -95 -344 -379 -344 -359 0 6 4 16 9 21 45 45
160 340 186 475 4 19 9 46 11 60 3 14 11 59 19 100 13 71 13 339 0 429 -7 50
-31 81 -63 81 -50 -1 -54 -8 -143 -255 -31 -88 -103 -225 -144 -275 -39 -48
-83 -90 -94 -90 -14 0 -14 53 -1 117 5 26 12 59 14 73 2 14 9 45 14 70 6 25
13 63 17 85 3 22 10 67 15 100 17 114 19 132 25 191 4 32 10 85 14 116 11 87
6 216 -12 278 -34 117 -130 180 -217 144 -23 -10 -30 -19 -30 -41 0 -35 -38
-184 -91 -363 -23 -74 -45 -148 -49 -165 -31 -115 -137 -440 -171 -521 -132
-319 -396 -730 -706 -1103 -194 -234 -258 -304 -530 -581 -105 -107 -220 -229
-254 -270 -34 -41 -65 -77 -69 -80 -13 -9 -255 -335 -330 -444 -233 -341 -385
-611 -405 -721 -16 -83 -76 -435 -81 -465 -3 -19 -8 -42 -11 -50 -3 -8 -9
-100 -12 -203 l-6 -188 -38 73 c-21 40 -56 106 -77 147 -48 89 -183 348 -272
521 -35 69 -113 233 -172 365 -172 379 -317 648 -417 771 -52 64 -139 143
-224 204 -124 89 -749 577 -880 688 -11 10 -58 46 -105 82 -47 36 -90 70 -96
75 -6 6 -111 87 -234 180 -232 177 -376 290 -402 315 -9 8 -44 40 -79 70 -72
61 -494 482 -579 576 -30 33 -71 78 -90 100 -77 84 -137 152 -190 214 -30 35
-60 68 -65 74 -9 9 -83 98 -190 225 -11 13 -25 29 -31 35 -5 6 -94 117 -197
246 -207 261 -259 320 -282 320 -8 0 -24 -15 -35 -32z"/>
<path d="M870 13869 c-30 -15 -100 -48 -154 -72 -55 -25 -103 -53 -108 -62
-22 -38 -317 -930 -311 -936 5 -3 40 -17 78 -29 39 -13 75 -25 81 -27 7 -2 21
28 35 71 13 42 28 76 33 76 5 0 118 -37 250 -81 133 -45 421 -142 641 -216
220 -74 403 -137 407 -141 4 -4 -4 -40 -18 -81 -14 -40 -23 -74 -22 -75 17
-10 170 -57 174 -54 2 3 75 216 162 474 157 465 158 470 142 499 -9 17 -45 84
-80 150 -34 66 -66 124 -70 128 -4 4 -114 44 -246 89 -194 65 -891 299 -929
312 -5 1 -35 -10 -65 -25z m575 -374 c285 -97 523 -180 529 -185 7 -5 27 -41
46 -80 l34 -71 -84 -248 -83 -249 -576 195 c-317 107 -581 196 -588 197 -7 1
-16 5 -19 9 -4 4 -13 7 -21 7 -7 0 -29 6 -48 14 l-34 15 80 233 c44 128 81
239 83 247 2 11 131 85 156 90 3 1 239 -78 525 -174z"/>
<path d="M19097 13551 c-43 -16 -80 -31 -84 -34 -3 -4 2 -24 11 -47 9 -22 15
-41 13 -41 -4 -3 -246 -7 -739 -14 l-477 -6 -17 55 c-10 31 -22 56 -28 56 -23
0 -166 -54 -166 -63 0 -9 55 -169 69 -202 5 -11 28 -74 51 -141 l43 -120 61
22 c34 12 73 27 89 33 l27 11 -25 66 c-14 36 -25 70 -25 74 0 5 69 9 153 9
l152 1 99 -275 c56 -157 95 -280 90 -284 -25 -23 -224 -181 -228 -181 -4 0
-27 58 -51 127 -5 14 -167 -39 -173 -57 -3 -9 17 -74 39 -125 4 -11 33 -89 63
-174 30 -84 57 -155 60 -158 2 -3 43 9 89 27 l85 32 -20 60 c-11 33 -16 63
-12 67 5 4 68 55 139 112 72 57 137 109 145 116 15 13 177 143 240 193 19 16
119 96 223 179 103 83 189 151 191 151 1 0 9 -18 16 -41 8 -22 17 -42 20 -44
8 -5 155 46 166 58 6 6 -22 97 -46 152 -5 11 -42 113 -82 227 -40 115 -75 208
-78 207 -3 0 -40 -13 -83 -28z m-2 -339 c-5 -5 -80 -65 -165 -133 -157 -125
-306 -245 -348 -280 -26 -22 -17 -36 -68 106 -45 123 -62 169 -87 237 l-25 67
27 3 c69 8 675 8 666 0z"/>
<path d="M19090 10603 c-297 -23 -540 -222 -616 -503 -23 -87 -23 -253 0 -339
112 -416 569 -622 951 -430 234 117 379 360 369 615 -5 116 -8 134 -46 234
-84 219 -314 396 -543 416 -33 3 -64 6 -70 7 -5 1 -26 1 -45 0z"/>
<path d="M710 10582 c-189 -52 -341 -173 -428 -340 -52 -99 -74 -185 -77 -297
-9 -379 294 -687 673 -686 275 1 523 172 624 431 33 83 38 110 43 206 9 198
-58 369 -199 509 -81 80 -153 125 -258 162 -98 35 -280 42 -378 15z"/>
<path d="M12468 9635 c-2 -1 -32 -6 -68 -9 -80 -9 -114 -13 -215 -31 -149 -27
-149 -27 -230 -53 -60 -20 -60 -31 0 -30 17 0 44 0 62 -1 l32 -1 -13 -45 -14
-44 34 -7 c19 -3 48 -7 64 -8 17 0 30 -4 30 -7 0 -3 -22 -38 -50 -77 -27 -39
-51 -76 -52 -83 -2 -9 18 -13 72 -15 87 -2 85 2 40 -99 l-29 -64 54 -25 54
-24 -14 -53 c-8 -29 -13 -54 -12 -55 1 -1 26 -13 54 -28 57 -29 58 -30 18
-106 -16 -31 -16 -32 67 -44 33 -4 29 -13 -32 -74 -33 -33 -60 -63 -60 -66 0
-3 26 8 58 24 101 50 300 111 457 140 116 21 195 27 297 21 38 -2 80 -49 102
-115 12 -36 33 -70 55 -92 33 -31 37 -33 48 -18 7 10 15 34 19 53 3 20 19 79
36 131 39 127 39 183 -3 295 -25 66 -94 171 -129 197 -14 10 -48 24 -75 31
-44 11 -50 16 -56 44 -21 105 -182 279 -300 323 -29 11 -291 24 -301 15z m337
-235 c39 -15 65 -65 54 -104 -13 -46 -43 -66 -99 -66 -61 0 -172 34 -206 64
l-27 22 24 23 c19 17 100 48 173 65 27 6 58 5 81 -4z"/>
<path d="M12668 9362 c-86 -31 -90 -60 -11 -86 119 -39 182 -25 183 42 0 58
-76 78 -172 44z"/>
<path d="M2090 7668 c-47 -17 -86 -31 -88 -32 -1 -2 9 -33 23 -71 14 -37 24
-72 23 -77 -2 -5 -129 -52 -283 -104 -483 -162 -1000 -337 -1011 -341 -7 -2
-23 29 -39 75 l-27 78 -77 -26 c-42 -15 -81 -29 -88 -31 -8 -3 41 -162 148
-478 87 -261 160 -475 161 -476 2 0 75 -34 162 -74 l159 -72 276 92 c152 51
417 141 590 199 l314 107 42 79 c23 43 60 114 83 157 l41 78 -159 471 c-88
259 -161 472 -162 473 -2 2 -41 -11 -88 -27z m105 -649 l83 -245 -42 -80 c-40
-77 -42 -79 -96 -95 -30 -10 -262 -87 -515 -173 -253 -86 -466 -156 -474 -156
-10 0 -146 64 -158 74 -9 8 -163 481 -160 490 3 7 56 28 118 48 63 21 346 116
629 212 283 96 519 174 523 173 5 -2 46 -113 92 -248z"/>
<path d="M17949 7353 c-56 -145 -200 -555 -196 -559 2 -2 35 -15 73 -28 38
-13 76 -27 85 -30 13 -6 19 3 29 38 7 26 15 46 18 46 4 0 339 -266 352 -280 3
-3 137 -111 298 -240 160 -129 292 -239 292 -245 0 -5 -8 -33 -18 -61 l-19
-50 89 -32 c64 -23 90 -28 93 -19 3 6 40 111 84 232 55 153 76 222 68 227 -24
13 -161 58 -165 54 -2 -3 -14 -33 -27 -68 -12 -35 -27 -63 -31 -62 -13 1 -222
167 -228 180 -2 6 39 132 93 280 l97 269 152 1 c84 0 152 -3 152 -7 0 -5 -11
-37 -23 -73 l-24 -64 85 -31 c47 -18 88 -28 92 -24 6 7 154 412 155 423 0 3 4
11 9 18 10 17 12 15 -59 41 -122 45 -110 47 -135 -20 l-21 -60 -472 7 c-260 4
-532 7 -604 8 -145 1 -144 0 -119 61 l15 34 -47 17 c-26 10 -62 23 -81 31 -46
18 -50 17 -62 -14z m785 -344 c3 -3 -25 -86 -69 -199 -7 -19 -28 -77 -46 -127
-17 -51 -37 -93 -42 -93 -6 0 -25 13 -42 29 -16 15 -135 112 -264 215 l-235
188 347 -4 c190 -2 348 -6 351 -9z"/>
<path d="M17482 6112 c-144 -223 -200 -311 -220 -344 l-23 -37 68 -43 c37 -24
73 -47 79 -51 7 -4 29 20 55 62 l43 69 26 -16 c14 -10 33 -21 42 -27 9 -5 76
-48 148 -95 72 -47 138 -90 148 -95 9 -6 51 -32 92 -59 41 -26 107 -69 145
-93 39 -25 129 -83 200 -129 l130 -85 -50 5 c-46 4 -104 10 -240 21 -27 2 -88
7 -135 10 -47 3 -96 8 -110 10 -14 2 -70 7 -125 10 -55 4 -108 9 -119 11 -10
2 -64 6 -119 10 -56 3 -110 8 -121 10 -12 2 -66 7 -120 10 -55 3 -108 7 -118
9 -11 2 -60 7 -111 11 l-92 6 -127 -200 c-71 -110 -128 -203 -128 -208 0 -5
34 -30 76 -56 l75 -48 45 71 46 70 33 -25 c19 -15 36 -26 38 -26 4 0 303 -191
602 -384 44 -29 128 -83 187 -120 70 -45 105 -73 100 -80 -26 -35 -83 -128
-80 -130 1 -1 37 -24 78 -49 87 -54 73 -60 152 64 25 41 80 127 122 192 42 65
80 127 86 137 9 16 0 25 -63 64 -41 25 -78 46 -83 46 -5 0 -22 -22 -37 -48
-54 -91 -47 -88 -113 -44 -33 22 -237 153 -454 292 -386 246 -431 277 -400
266 8 -2 58 -8 110 -11 52 -3 109 -8 125 -10 17 -2 72 -6 123 -10 51 -3 101
-8 110 -10 9 -1 62 -6 117 -9 55 -4 116 -9 135 -11 31 -2 82 -7 250 -21 25 -2
77 -6 115 -9 39 -3 88 -7 110 -9 34 -4 129 -12 224 -19 20 -2 37 19 111 133
l87 135 -28 20 c-15 11 -63 42 -106 70 -71 45 -372 238 -611 391 -51 32 -130
83 -175 112 -45 29 -110 71 -144 93 l-63 39 44 68 45 67 -22 17 c-12 10 -48
33 -79 52 l-57 34 -49 -76z"/>
<path d="M2468 6029 c-86 -45 -84 -38 -31 -132 18 -33 33 -64 33 -71 0 -6 -42
-33 -92 -59 -51 -25 -140 -72 -198 -103 -58 -31 -150 -80 -205 -109 -55 -29
-125 -66 -155 -82 -30 -17 -113 -60 -185 -98 -71 -37 -134 -71 -140 -76 -24
-22 -43 -6 -81 70 l-39 79 -80 -41 c-44 -22 -82 -42 -84 -44 -4 -2 46 -101
119 -235 14 -26 51 -98 84 -160 32 -62 62 -117 65 -121 4 -4 44 12 89 36 l81
43 -44 82 c-29 53 -40 84 -33 88 6 4 39 22 72 39 64 34 187 99 321 170 44 23
152 81 240 127 88 47 208 111 267 142 l107 57 41 -81 c23 -44 46 -80 50 -80
14 0 160 81 160 89 0 4 -4 11 -9 17 -7 8 -50 87 -207 389 -29 55 -56 101 -61
102 -4 1 -43 -16 -85 -38z"/>
<path d="M2859 5036 c-13 -7 -57 -38 -98 -69 -40 -31 -76 -57 -80 -57 -3 0
-24 -16 -46 -35 -22 -19 -43 -35 -47 -35 -8 0 -15 -21 -22 -65 -3 -16 -16 -87
-29 -158 l-24 -127 144 -197 c139 -189 144 -198 139 -237 -13 -118 -12 -116
-102 -184 -68 -50 -89 -61 -111 -57 -16 2 -54 7 -85 11 l-58 7 -121 164 -121
164 17 102 c9 56 20 104 25 107 52 33 149 107 150 114 0 5 -25 43 -56 83 -38
51 -59 71 -67 65 -16 -12 -221 -165 -224 -166 -1 -1 -5 -17 -8 -36 -22 -134
-25 -152 -45 -253 -10 -53 -9 -60 12 -90 50 -71 310 -423 322 -435 14 -14 26
-17 121 -27 39 -4 84 -9 100 -11 115 -16 136 -16 163 2 102 66 252 187 257
207 3 12 7 36 10 52 3 17 14 83 25 148 l21 118 -146 197 c-116 158 -144 202
-140 220 7 28 18 101 18 120 0 8 43 45 95 84 l94 70 86 -12 c48 -6 87 -12 88
-13 1 -1 49 -67 108 -146 59 -79 105 -149 103 -155 -2 -6 -10 -51 -18 -100
l-14 -88 -82 -60 c-79 -57 -93 -72 -75 -80 4 -1 29 -33 56 -70 31 -42 54 -64
61 -60 69 42 226 169 230 186 7 31 44 235 51 281 3 22 7 42 9 43 5 5 -324 447
-333 448 -21 1 -149 17 -162 19 -9 2 -47 6 -85 10 -38 3 -72 8 -75 10 -4 2
-17 -2 -31 -9z"/>
<path d="M16126 4223 c-68 -71 -165 -171 -215 -223 l-90 -95 67 -66 67 -65 33
35 c39 41 29 53 119 -124 65 -129 117 -231 351 -686 l122 -236 -31 -29 c-59
-55 -58 -60 15 -129 l65 -62 168 175 c92 96 169 177 171 181 1 4 -27 36 -63
71 l-66 63 -54 -56 -54 -56 -24 42 c-13 23 -45 84 -71 136 l-48 93 35 37 c19
20 64 67 100 104 36 37 112 117 169 176 l103 108 50 -23 c179 -82 225 -104
225 -107 0 -3 -23 -28 -51 -57 l-52 -53 68 -66 68 -65 173 180 173 179 -67 63
c-36 34 -69 62 -73 62 -3 0 -21 -18 -40 -40 -19 -22 -39 -40 -46 -40 -6 0 -51
18 -100 41 -112 52 -164 76 -468 216 -137 63 -286 132 -330 152 -44 21 -108
50 -143 66 l-63 28 35 36 36 37 -63 62 c-34 34 -66 62 -70 62 -4 0 -63 -57
-131 -127z m146 -271 c45 -22 108 -51 138 -65 67 -31 323 -148 368 -168 17 -7
32 -16 32 -19 0 -3 -71 -78 -158 -168 l-157 -163 -158 310 c-87 171 -156 311
-153 311 2 0 42 -17 88 -38z"/>
<path d="M3970 4062 c0 -4 -22 -30 -50 -57 -27 -28 -50 -55 -50 -61 0 -7 26
-35 57 -63 l56 -51 -24 -28 c-13 -15 -31 -34 -39 -43 -8 -8 -53 -58 -100 -109
-47 -52 -112 -124 -145 -160 -71 -78 -98 -108 -245 -270 -62 -69 -137 -151
-166 -183 l-53 -59 -61 54 c-33 29 -62 53 -64 53 -1 0 -30 -31 -63 -68 l-61
-68 52 -47 c28 -26 53 -49 56 -52 3 -3 50 -46 105 -95 55 -50 118 -107 140
-127 44 -42 51 -44 68 -25 7 7 34 36 60 65 l48 53 -61 57 -60 57 57 61 c32 34
90 97 128 139 39 43 86 95 105 116 l35 39 50 -48 c28 -26 97 -90 155 -142 134
-121 180 -163 261 -237 l66 -61 -35 -38 c-19 -22 -51 -57 -71 -79 -118 -131
-215 -235 -220 -235 -3 0 -28 22 -56 50 -56 55 -68 59 -88 30 -8 -11 -33 -41
-57 -66 l-43 -46 39 -35 c109 -100 157 -145 239 -218 49 -44 97 -88 106 -97
17 -16 21 -13 78 49 34 36 61 69 61 73 0 5 -25 30 -55 56 -30 27 -55 51 -55
55 0 4 12 20 28 36 36 39 172 189 193 214 9 10 43 47 75 82 32 35 95 103 139
152 44 49 92 102 107 119 15 16 54 58 87 95 33 36 78 86 100 110 l41 45 48
-45 c25 -24 48 -47 50 -51 9 -19 33 -4 86 53 31 34 56 64 56 68 0 4 -35 39
-77 77 -42 38 -86 78 -98 89 -79 76 -214 195 -222 195 -5 0 -17 -10 -27 -22
-10 -12 -37 -41 -59 -65 l-40 -44 62 -56 c34 -31 58 -59 54 -62 -4 -3 -48 -51
-98 -106 -49 -55 -111 -122 -137 -150 -25 -27 -54 -60 -65 -72 l-18 -23 -45
41 c-25 23 -92 84 -150 137 -58 52 -148 134 -200 183 -52 48 -105 95 -118 105
l-22 19 35 40 c64 71 152 169 176 196 13 14 43 47 67 73 l43 47 37 -30 c20
-16 46 -38 56 -50 11 -12 23 -21 27 -21 15 0 114 112 114 130 0 9 -32 46 -70
81 -217 197 -253 230 -280 253 -29 25 -55 34 -55 18z"/>
<path d="M14765 3314 c-93 -64 -260 -177 -370 -251 -110 -74 -206 -141 -214
-148 -11 -11 -5 -25 39 -89 l53 -75 64 44 c36 25 68 43 72 40 5 -2 50 -66 101
-142 51 -76 168 -248 260 -383 354 -521 400 -590 406 -603 3 -9 -18 -29 -61
-57 l-65 -43 21 -31 c11 -17 34 -52 51 -78 l30 -47 27 17 c39 25 363 243 387
261 21 16 21 16 -29 88 -27 40 -55 73 -61 73 -6 0 -33 -16 -60 -35 -28 -19
-53 -32 -57 -28 -3 5 -72 105 -152 224 l-146 216 110 74 c60 41 123 82 138 92
l29 17 243 -145 c134 -80 247 -150 252 -154 4 -4 -8 -19 -27 -32 l-35 -25 52
-76 52 -77 28 17 c27 17 184 123 284 193 l53 37 -46 68 c-26 38 -50 73 -55 78
-4 4 -28 -6 -53 -25 l-46 -32 -43 22 c-23 12 -81 46 -130 76 -48 29 -91 55
-95 57 -23 10 -238 143 -243 150 -3 5 0 39 7 76 6 37 15 85 18 107 3 22 8 54
11 70 3 17 8 45 11 63 3 20 0 40 -8 49 -7 8 -17 24 -23 34 -15 28 -236 352
-249 366 -12 13 -227 65 -326 79 -32 4 -51 -6 -205 -112z m503 -283 c54 -80
98 -150 97 -156 0 -5 -7 -39 -14 -75 -6 -36 -13 -74 -15 -85 -2 -10 -25 -35
-52 -53 -143 -99 -328 -222 -334 -222 -4 0 -67 89 -141 198 -73 108 -150 221
-171 251 -21 30 -38 57 -38 61 0 4 69 54 153 111 83 57 169 115 190 129 l38
26 94 -20 94 -19 99 -146z"/>
<path d="M5623 2676 c-24 -40 -43 -78 -43 -84 0 -6 18 -20 41 -30 l41 -19
-139 -123 c-76 -67 -154 -137 -173 -154 -38 -34 -194 -172 -250 -221 -19 -16
-57 -50 -84 -75 -28 -25 -56 -49 -62 -55 -6 -5 -44 -39 -84 -75 -40 -35 -84
-73 -98 -84 l-25 -20 -50 27 c-27 14 -54 24 -58 21 -10 -6 -92 -154 -88 -157
24 -12 73 -40 237 -132 106 -59 194 -106 196 -104 20 27 85 153 81 159 -3 4
-31 23 -63 40 -71 40 -69 38 -50 53 9 6 62 52 117 100 l100 88 68 -39 c60 -35
242 -137 373 -210 60 -33 70 -41 65 -55 -2 -7 -6 -25 -9 -42 -10 -70 -37 -221
-41 -234 -4 -9 -9 -10 -18 -3 -19 15 -107 62 -116 62 -4 0 -14 -12 -22 -27 -7
-16 -27 -50 -42 -77 -28 -48 -28 -51 -10 -63 31 -24 414 -236 417 -232 2 2 9
18 18 34 8 17 27 51 42 77 l27 47 -48 30 c-26 17 -51 32 -55 33 -5 3 8 93 26
174 2 12 7 37 10 55 7 44 48 268 80 441 15 76 29 154 32 174 3 20 8 46 10 58
4 18 18 98 39 216 3 14 7 37 11 52 l6 28 43 -25 43 -26 46 82 c26 45 45 83 44
84 -5 5 -538 305 -541 305 -1 0 -21 -33 -44 -74z m213 -283 c-10 -45 -15 -72
-37 -193 -47 -263 -54 -303 -63 -347 -3 -11 -8 -42 -11 -66 -6 -38 -10 -44
-24 -39 -10 4 -100 54 -200 111 l-184 105 39 35 c39 36 149 133 190 168 12 10
56 50 99 88 44 39 103 91 132 118 29 26 56 47 59 47 3 0 3 -12 0 -27z"/>
<path d="M6825 2133 c-9 -22 -55 -155 -55 -159 0 -2 32 -13 71 -26 39 -12 73
-27 76 -33 3 -9 -343 -1072 -352 -1083 -1 -2 -34 7 -71 19 -38 12 -73 22 -78
23 -7 1 -31 -59 -60 -152 -6 -18 15 -27 241 -103 136 -45 253 -84 259 -86 15
-5 69 166 57 177 -4 5 -37 17 -73 27 -54 16 -64 23 -62 39 2 10 67 210 145
444 77 234 141 427 142 430 2 15 49 149 51 147 2 -2 33 -168 39 -212 1 -11 5
-36 9 -55 11 -64 16 -95 22 -133 3 -21 7 -44 8 -50 8 -38 44 -252 51 -302 4
-22 8 -47 10 -55 2 -8 7 -33 10 -55 3 -23 8 -52 10 -65 5 -27 24 -135 31 -185
3 -16 12 -66 20 -110 8 -44 18 -100 21 -125 10 -84 8 -82 168 -134 81 -26 151
-44 155 -39 5 6 297 879 306 918 1 6 28 84 58 175 31 91 56 166 56 166 0 1 29
-9 65 -22 36 -13 72 -24 80 -24 12 0 73 166 64 174 -9 7 -510 168 -512 165 -3
-4 -41 -119 -51 -156 -6 -19 0 -23 69 -44 41 -12 75 -26 75 -30 0 -5 -74 -233
-165 -507 -91 -274 -165 -504 -165 -510 0 -7 -4 -12 -9 -12 -8 0 -12 18 -28
115 -4 29 -59 354 -68 405 -2 14 -18 108 -35 210 -17 102 -33 199 -36 215 -3
17 -20 120 -39 231 -19 110 -37 212 -40 226 -6 24 -25 32 -223 98 -120 39
-222 74 -228 76 -6 3 -15 -3 -19 -13z"/>
<path d="M12440 2103 c-36 -6 -78 -14 -95 -17 -95 -18 -367 -75 -371 -78 -2
-2 1 -20 6 -39 5 -19 12 -50 15 -69 13 -79 8 -76 105 -55 36 7 66 12 68 11 3
-3 56 -256 66 -318 3 -18 17 -85 30 -148 13 -63 23 -116 22 -117 -1 -1 -48
-11 -106 -22 -58 -12 -116 -24 -130 -27 -45 -9 -187 -38 -250 -50 -14 -3 -67
-14 -119 -25 -100 -21 -110 -19 -111 25 0 10 -4 35 -10 55 -10 36 -91 443 -94
470 -1 14 28 26 89 36 61 11 66 15 61 43 -29 158 -27 154 -60 148 -71 -12
-104 -18 -164 -32 -34 -7 -77 -16 -95 -19 -17 -3 -66 -13 -107 -22 -41 -8 -88
-17 -105 -20 -16 -3 -31 -6 -32 -6 -2 -3 26 -148 33 -170 3 -9 8 -15 12 -13 4
2 25 7 47 10 22 4 54 9 72 12 34 6 34 7 48 -68 8 -43 14 -72 45 -224 16 -77
32 -154 35 -170 9 -51 13 -71 95 -477 44 -220 78 -403 75 -407 -3 -5 -37 -14
-75 -21 -39 -7 -73 -15 -75 -19 -2 -3 4 -43 14 -88 10 -44 16 -84 13 -87 -8
-8 -7 -8 235 41 125 25 242 48 258 51 17 2 33 8 37 12 8 7 -20 161 -31 173 -3
4 -39 0 -79 -9 -41 -8 -75 -13 -77 -11 -2 1 -5 17 -8 33 -5 25 -21 105 -62
305 -31 152 -47 241 -44 244 2 2 18 6 34 9 17 3 55 11 85 17 30 6 66 13 80 16
14 2 36 7 50 10 14 3 36 8 50 10 14 3 110 22 213 43 132 27 190 35 193 27 2
-6 29 -137 59 -290 59 -294 59 -294 10 -297 -11 0 -28 -2 -37 -5 -10 -2 -26
-6 -35 -8 -10 -3 -23 -5 -29 -5 -11 -1 -1 -76 20 -166 5 -21 21 -19 451 69 11
3 29 5 40 5 44 2 47 12 29 105 l-18 88 -40 -7 c-23 -4 -54 -9 -71 -12 -16 -3
-34 -6 -39 -6 -11 -2 -21 40 -72 298 -2 11 -8 43 -14 71 -6 28 -13 61 -15 75
-3 13 -7 33 -9 44 -2 11 -27 135 -56 275 -28 140 -53 264 -56 275 -2 11 -6 34
-9 50 -5 29 -19 101 -30 155 -17 79 -22 110 -19 111 6 2 16 4 87 18 l68 13 -6
42 c-4 22 -12 64 -18 91 l-12 50 -65 -12z"/>
<path d="M8912 1580 c-9 -8 -70 -59 -134 -113 -103 -86 -117 -102 -122 -135
-6 -45 -18 -146 -31 -272 -3 -30 -7 -66 -10 -80 -2 -14 -7 -53 -10 -87 -4 -35
-8 -74 -10 -88 -1 -14 -6 -53 -9 -88 -4 -34 -9 -73 -11 -87 -3 -14 -7 -52 -10
-85 -4 -33 -10 -87 -13 -120 l-8 -60 105 -140 c57 -77 105 -142 107 -144 2 -2
25 -5 53 -7 27 -2 61 -5 76 -8 14 -3 60 -8 103 -11 42 -4 79 -8 82 -10 3 -2
41 -6 85 -10 44 -4 89 -9 100 -11 77 -16 113 -14 141 8 16 12 31 25 34 28 3 3
48 41 100 85 52 43 98 81 102 84 4 3 10 29 13 56 4 28 8 61 11 75 2 14 6 54
10 90 3 36 8 79 10 95 10 83 17 154 18 185 1 39 11 36 -165 54 -105 11 -153
17 -179 21 -14 2 -55 7 -92 10 -67 7 -68 7 -69 -16 0 -13 -2 -32 -4 -41 -2 -9
-5 -41 -7 -70 l-3 -53 133 -15 c73 -9 135 -17 137 -18 3 -1 14 -2 26 -2 20 0
21 -4 15 -57 -12 -127 -17 -168 -21 -179 -2 -7 -41 -42 -86 -78 -66 -53 -88
-66 -109 -62 -14 3 -53 8 -88 11 -35 4 -71 8 -80 10 -9 1 -51 6 -92 10 -41 5
-84 9 -95 11 -11 1 -25 3 -31 3 -6 1 -35 31 -63 69 l-52 67 6 65 c4 36 8 76 9
90 2 14 7 54 11 90 4 36 8 72 10 80 2 8 6 49 10 90 4 41 9 83 11 93 1 10 6 50
9 89 4 40 8 75 10 78 2 5 17 148 18 179 0 7 33 39 73 71 l72 57 53 -8 c30 -4
78 -10 107 -13 28 -3 76 -9 105 -13 69 -8 97 -11 128 -12 22 -1 40 -19 93 -89
48 -65 64 -95 61 -113 -2 -13 -6 -51 -10 -84 -4 -32 -8 -63 -11 -66 -7 -11 10
-19 58 -26 69 -10 133 -9 133 2 3 32 18 173 21 189 15 79 12 86 -99 233 l-106
141 -73 7 c-40 4 -80 8 -88 10 -8 1 -46 6 -85 10 -38 4 -78 9 -87 10 -9 2 -45
6 -80 9 -35 4 -93 10 -131 14 -55 7 -70 6 -85 -8z"/>
<path d="M13467 915 c-31 -13 -71 -27 -88 -30 -17 -4 -33 -13 -36 -21 -5 -14
-1 -29 59 -186 l29 -76 92 33 c131 47 129 45 122 64 -4 9 -25 67 -47 129 -30
82 -45 112 -57 111 -9 0 -42 -11 -74 -24z"/>
</g>
</svg>
